<svg width="195" height="55" viewBox="0 0 195 55" fill="none" xmlns="http://www.w3.org/2000/svg">
<rect width="195" height="55" fill="white"/>
<path d="M66.2074 26H71.2175C75.3244 26 77.7392 23.4522 77.7392 19.1075V19.0885C77.7392 14.7534 75.3054 12.2816 71.2175 12.2816H66.2074V26ZM68.6601 23.9275V14.3541H70.9608C73.6892 14.3541 75.2389 16.0368 75.2389 19.098V19.1171C75.2389 22.2448 73.7178 23.9275 70.9608 23.9275H68.6601ZM84.1267 26.1996C86.7601 26.1996 88.2431 24.6405 88.5568 23.0909L88.5854 22.9863H86.3703L86.3513 23.0529C86.1231 23.7279 85.353 24.3553 84.1742 24.3553C82.6341 24.3553 81.6644 23.3096 81.6264 21.5413H88.6804V20.7807C88.6804 17.7386 86.8931 15.7136 84.0126 15.7136C81.132 15.7136 79.2782 17.8051 79.2782 20.9804V20.9899C79.2782 24.1937 81.1035 26.1996 84.1267 26.1996ZM84.0411 17.5674C85.296 17.5674 86.2087 18.366 86.3798 19.9632H81.6549C81.845 18.4135 82.7862 17.5674 84.0411 17.5674ZM94.2028 26.1996C94.6782 26.1996 95.0965 26.1521 95.3722 26.1141V24.3363C95.2105 24.3458 95.0299 24.3743 94.8017 24.3743C93.9366 24.3743 93.4993 24.0606 93.4993 23.0719V17.7481H95.3722V15.9228H93.4993V13.3654H91.0941V15.9228H89.6681V17.7481H91.0941V23.2715C91.0941 25.344 92.0923 26.1996 94.2028 26.1996ZM100.086 26.1711C101.417 26.1711 102.539 25.5056 103.119 24.4504H103.176V26H105.543V19.0695C105.543 17.0446 103.918 15.7136 101.398 15.7136C98.8411 15.7136 97.2914 17.0541 97.1488 18.8414L97.1393 18.9554H99.3354L99.3544 18.8699C99.5065 18.1283 100.191 17.6055 101.313 17.6055C102.511 17.6055 103.176 18.2234 103.176 19.2406V19.9346L100.543 20.0963C98.0995 20.2484 96.7115 21.3226 96.7115 23.1099V23.1289C96.7115 24.9257 98.071 26.1711 100.086 26.1711ZM99.0692 23.0339V23.0244C99.0692 22.2258 99.7062 21.7219 100.876 21.6459L103.176 21.5033V22.2638C103.176 23.4617 102.149 24.3648 100.79 24.3648C99.7537 24.3648 99.0692 23.861 99.0692 23.0339ZM108.955 14.4777C109.697 14.4777 110.267 13.8883 110.267 13.1848C110.267 12.4623 109.697 11.8823 108.955 11.8823C108.214 11.8823 107.634 12.4623 107.634 13.1848C107.634 13.8883 108.214 14.4777 108.955 14.4777ZM107.767 26H110.134V15.9228H107.767V26ZM112.462 26H114.829V12.2816H112.462V26ZM121.027 26.1996C123.499 26.1996 125.257 24.9257 125.257 23.0244V23.0149C125.257 21.5508 124.449 20.7332 122.367 20.2674L120.684 19.8966C119.639 19.6589 119.249 19.2787 119.249 18.6988V18.6892C119.249 17.9477 119.905 17.4629 120.951 17.4629C122.053 17.4629 122.7 18.0523 122.805 18.8604L122.814 18.9364H125.02L125.01 18.8318C124.925 17.0921 123.46 15.7136 120.951 15.7136C118.517 15.7136 116.91 16.959 116.91 18.8033V18.8128C116.91 20.3054 117.88 21.2466 119.81 21.6744L121.483 22.0452C122.529 22.2828 122.881 22.6251 122.881 23.2335V23.243C122.881 23.9846 122.187 24.4504 121.036 24.4504C119.838 24.4504 119.182 23.937 119.002 23.0719L118.983 22.9863H116.654L116.663 23.0719C116.872 24.9447 118.384 26.1996 121.027 26.1996ZM127.253 26H129.705V21.4652H132.538C135.314 21.4652 137.206 19.6209 137.206 16.8829V16.8639C137.206 14.1165 135.314 12.2816 132.538 12.2816H127.253V26ZM131.93 14.2876C133.689 14.2876 134.715 15.2288 134.715 16.8734V16.8925C134.715 18.5371 133.689 19.4878 131.93 19.4878H129.705V14.2876H131.93ZM139.011 26H141.379V20.1533C141.379 18.6607 142.187 17.8146 143.527 17.8146C143.927 17.8146 144.288 17.8717 144.487 17.9477V15.8087C144.307 15.7611 144.031 15.7136 143.736 15.7136C142.577 15.7136 141.74 16.4456 141.426 17.6625H141.379V15.9228H139.011V26ZM150.029 26.1996C152.985 26.1996 154.906 24.2317 154.906 20.9614V20.9424C154.906 17.691 152.957 15.7136 150.019 15.7136C147.091 15.7136 145.152 17.71 145.152 20.9424V20.9614C145.152 24.2222 147.063 26.1996 150.029 26.1996ZM150.038 24.2888C148.527 24.2888 147.567 23.0814 147.567 20.9614V20.9424C147.567 18.8509 148.546 17.634 150.019 17.634C151.521 17.634 152.491 18.8414 152.491 20.9424V20.9614C152.491 23.0719 151.531 24.2888 150.038 24.2888Z" fill="black"/>
<path d="M65.8973 43H69.6208C72.6731 43 74.4677 41.1065 74.4677 37.8776V37.8634C74.4677 34.6416 72.6589 32.8046 69.6208 32.8046H65.8973V43ZM67.7202 41.4597V34.3448H69.43C71.4578 34.3448 72.6095 35.5954 72.6095 37.8705V37.8846C72.6095 40.2092 71.479 41.4597 69.43 41.4597H67.7202ZM79.278 43.1484C81.2352 43.1484 82.3374 41.9896 82.5705 40.838L82.5917 40.7603H80.9455L80.9313 40.8097C80.7618 41.3114 80.1895 41.7777 79.3134 41.7777C78.1688 41.7777 77.4481 41.0005 77.4198 39.6863H82.6624V39.1211C82.6624 36.8601 81.3341 35.3552 79.1932 35.3552C77.0524 35.3552 75.6747 36.9096 75.6747 39.2695V39.2765C75.6747 41.6576 77.0312 43.1484 79.278 43.1484ZM79.2144 36.733C80.1471 36.733 80.8254 37.3265 80.9525 38.5135H77.441C77.5823 37.3618 78.2818 36.733 79.2144 36.733ZM86.9711 43.1484C88.8081 43.1484 90.1152 42.2016 90.1152 40.7885V40.7815C90.1152 39.6934 89.5146 39.0858 87.9673 38.7395L86.7167 38.464C85.9395 38.2874 85.6498 38.0047 85.6498 37.5737V37.5667C85.6498 37.0156 86.1374 36.6552 86.9146 36.6552C87.7341 36.6552 88.2146 37.0933 88.2923 37.6939L88.2994 37.7504H89.9386L89.9315 37.6727C89.8679 36.3797 88.7798 35.3552 86.9146 35.3552C85.1058 35.3552 83.9117 36.2808 83.9117 37.6515V37.6585C83.9117 38.7678 84.6324 39.4673 86.0667 39.7852L87.3102 40.0608C88.0874 40.2374 88.3488 40.4918 88.3488 40.944V40.951C88.3488 41.5021 87.8331 41.8483 86.9781 41.8483C86.0879 41.8483 85.6004 41.4668 85.4661 40.8238L85.452 40.7603H83.721L83.728 40.8238C83.8835 42.2157 85.0069 43.1484 86.9711 43.1484ZM92.4173 34.4367C92.9684 34.4367 93.3923 33.9986 93.3923 33.4758C93.3923 32.9388 92.9684 32.5078 92.4173 32.5078C91.8662 32.5078 91.4352 32.9388 91.4352 33.4758C91.4352 33.9986 91.8662 34.4367 92.4173 34.4367ZM91.5341 43H93.2934V35.5106H91.5341V43ZM98.4147 45.6213C100.584 45.6213 101.947 44.4837 101.947 42.788V35.5106H100.188V36.7824H100.146C99.7218 35.9204 98.9022 35.3552 97.8424 35.3552C95.9488 35.3552 94.7265 36.8107 94.7265 39.1776V39.1847C94.7265 41.5163 95.9347 42.9576 97.8141 42.9576C98.888 42.9576 99.7359 42.4489 100.153 41.6505H100.188V42.7315C100.188 43.6853 99.5593 44.293 98.4147 44.293C97.4962 44.293 96.8956 43.968 96.7048 43.537L96.6836 43.4804H94.9526L94.9667 43.544C95.1787 44.7169 96.4293 45.6213 98.4147 45.6213ZM98.3652 41.601C97.2347 41.601 96.5211 40.6896 96.5211 39.2129V39.2059C96.5211 37.7504 97.2347 36.8389 98.3652 36.8389C99.4533 36.8389 100.195 37.7645 100.195 39.2129V39.22C100.195 40.6755 99.4603 41.601 98.3652 41.601ZM103.635 43H105.394V38.6548C105.394 37.5737 106.037 36.8389 107.047 36.8389C108.051 36.8389 108.545 37.4395 108.545 38.5064V43H110.305V38.1531C110.305 36.415 109.365 35.3552 107.719 35.3552C106.581 35.3552 105.818 35.878 105.429 36.6835H105.394V35.5106H103.635V43ZM115.156 43H116.915V32.8046H115.156V43ZM119.592 34.4367C120.143 34.4367 120.567 33.9986 120.567 33.4758C120.567 32.9388 120.143 32.5078 119.592 32.5078C119.041 32.5078 118.61 32.9388 118.61 33.4758C118.61 33.9986 119.041 34.4367 119.592 34.4367ZM118.709 43H120.468V35.5106H118.709V43ZM122.29 43H124.049V40.3999L124.643 39.7782L127.009 43H129.037L125.95 38.7325L128.917 35.5106H126.882L124.084 38.6194H124.049V32.8046H122.29V43ZM132.901 43.1484C134.858 43.1484 135.96 41.9896 136.193 40.838L136.215 40.7603H134.568L134.554 40.8097C134.385 41.3114 133.812 41.7777 132.936 41.7777C131.792 41.7777 131.071 41.0005 131.043 39.6863H136.285V39.1211C136.285 36.8601 134.957 35.3552 132.816 35.3552C130.675 35.3552 129.297 36.9096 129.297 39.2695V39.2765C129.297 41.6576 130.654 43.1484 132.901 43.1484ZM132.837 36.733C133.77 36.733 134.448 37.3265 134.575 38.5135H131.064C131.205 37.3618 131.905 36.733 132.837 36.733ZM141.744 34.4367C142.295 34.4367 142.719 33.9986 142.719 33.4758C142.719 32.9388 142.295 32.5078 141.744 32.5078C141.193 32.5078 140.762 32.9388 140.762 33.4758C140.762 33.9986 141.193 34.4367 141.744 34.4367ZM140.861 43H142.62V35.5106H140.861V43ZM147.148 43.1484C147.501 43.1484 147.812 43.113 148.017 43.0848V41.7635C147.897 41.7706 147.763 41.7918 147.593 41.7918C146.95 41.7918 146.625 41.5587 146.625 40.8238V36.8672H148.017V35.5106H146.625V33.61H144.838V35.5106H143.778V36.8672H144.838V40.9722C144.838 42.5125 145.58 43.1484 147.148 43.1484ZM149.154 36.5493H150.383L151.415 32.8046H149.705L149.154 36.5493ZM154.861 43.1484C156.698 43.1484 158.005 42.2016 158.005 40.7885V40.7815C158.005 39.6934 157.405 39.0858 155.857 38.7395L154.607 38.464C153.83 38.2874 153.54 38.0047 153.54 37.5737V37.5667C153.54 37.0156 154.028 36.6552 154.805 36.6552C155.624 36.6552 156.105 37.0933 156.182 37.6939L156.19 37.7504H157.829L157.822 37.6727C157.758 36.3797 156.67 35.3552 154.805 35.3552C152.996 35.3552 151.802 36.2808 151.802 37.6515V37.6585C151.802 38.7678 152.523 39.4673 153.957 39.7852L155.2 40.0608C155.978 40.2374 156.239 40.4918 156.239 40.944V40.951C156.239 41.5021 155.723 41.8483 154.868 41.8483C153.978 41.8483 153.491 41.4668 153.356 40.8238L153.342 40.7603H151.611L151.618 40.8238C151.774 42.2157 152.897 43.1484 154.861 43.1484ZM166.333 32.6279C164.136 32.6279 162.518 34.1046 162.518 36.1607V36.1748C162.518 38.0895 163.903 39.5026 165.867 39.5026C167.245 39.5026 168.262 38.7961 168.665 37.8634H168.707C168.707 37.9765 168.7 38.0825 168.693 38.1884C168.622 40.1173 167.937 41.6858 166.298 41.6858C165.386 41.6858 164.765 41.2336 164.489 40.5342L164.468 40.4706H162.659L162.673 40.5483C162.991 42.0886 164.404 43.1766 166.291 43.1766C168.891 43.1766 170.452 41.163 170.452 37.7928V37.7786C170.452 34.2035 168.58 32.6279 166.333 32.6279ZM166.333 38.0966C165.174 38.0966 164.312 37.2699 164.312 36.1112V36.0971C164.312 34.9949 165.224 34.1188 166.354 34.1188C167.499 34.1188 168.389 35.0019 168.389 36.1324V36.1395C168.389 37.277 167.499 38.0966 166.333 38.0966ZM172.973 37.927C173.546 37.927 173.991 37.4748 173.991 36.9025C173.991 36.3302 173.546 35.8851 172.973 35.8851C172.401 35.8851 171.949 36.3302 171.949 36.9025C171.949 37.4748 172.401 37.927 172.973 37.927ZM172.973 43.113C173.546 43.113 173.991 42.6609 173.991 42.0886C173.991 41.5233 173.546 41.0711 172.973 41.0711C172.401 41.0711 171.949 41.5233 171.949 42.0886C171.949 42.6609 172.401 43.113 172.973 43.113ZM180.504 43H182.242V41.0429H183.627V39.545H182.242V32.8046H179.649L175.417 39.4885V41.0429H180.504V43ZM177.056 39.5874V39.5379L180.49 34.1823H180.532V39.5874H177.056ZM187.568 43H189.356V32.8046H187.554L184.89 34.6769V36.3514L187.526 34.5427H187.568V43ZM192.675 43.113C193.248 43.113 193.693 42.6609 193.693 42.0886C193.693 41.5233 193.248 41.0711 192.675 41.0711C192.103 41.0711 191.651 41.5233 191.651 42.0886C191.651 42.6609 192.103 43.113 192.675 43.113Z" fill="#3C3C43" fill-opacity="0.6"/>
<path d="M0 24C0 15.5992 0 11.3988 1.6349 8.19014C3.073 5.36771 5.36771 3.073 8.19014 1.6349C11.3988 0 15.5992 0 24 0H31C39.4008 0 43.6012 0 46.8099 1.6349C49.6323 3.073 51.927 5.36771 53.3651 8.19014C55 11.3988 55 15.5992 55 24V31C55 39.4008 55 43.6012 53.3651 46.8099C51.927 49.6323 49.6323 51.927 46.8099 53.3651C43.6012 55 39.4008 55 31 55H24C15.5992 55 11.3988 55 8.19014 53.3651C5.36771 51.927 3.073 49.6323 1.6349 46.8099C0 43.6012 0 39.4008 0 31V24Z" fill="url(#paint0_linear)"/>
<path opacity="0.3" fill-rule="evenodd" clip-rule="evenodd" d="M27.5 48.1111C38.8832 48.1111 48.1111 38.8832 48.1111 27.5C48.1111 16.1168 38.8832 6.88889 27.5 6.88889C16.1168 6.88889 6.88892 16.1168 6.88892 27.5C6.88892 38.8832 16.1168 48.1111 27.5 48.1111ZM27.5 50.1111C39.9878 50.1111 50.1111 39.9878 50.1111 27.5C50.1111 15.0122 39.9878 4.88889 27.5 4.88889C15.0123 4.88889 4.88892 15.0122 4.88892 27.5C4.88892 39.9878 15.0123 50.1111 27.5 50.1111Z" fill="white"/>
<path opacity="0.5" fill-rule="evenodd" clip-rule="evenodd" d="M20.7779 31.6111C26.761 31.6111 31.6112 26.7608 31.6112 20.7778C31.6112 14.7947 26.761 9.94443 20.7779 9.94443C14.7948 9.94443 9.94458 14.7947 9.94458 20.7778C9.94458 26.7608 14.7948 31.6111 20.7779 31.6111ZM20.7779 33.6111C27.8656 33.6111 33.6112 27.8654 33.6112 20.7778C33.6112 13.6901 27.8656 7.94443 20.7779 7.94443C13.6903 7.94443 7.94458 13.6901 7.94458 20.7778C7.94458 27.8654 13.6903 33.6111 20.7779 33.6111Z" fill="white"/>
<path opacity="0.7" fill-rule="evenodd" clip-rule="evenodd" d="M34.8333 44.1389C40.8164 44.1389 45.6667 39.2886 45.6667 33.3056C45.6667 27.3225 40.8164 22.4722 34.8333 22.4722C28.8502 22.4722 24 27.3225 24 33.3056C24 39.2886 28.8502 44.1389 34.8333 44.1389ZM34.8333 46.1389C41.921 46.1389 47.6667 40.3932 47.6667 33.3056C47.6667 26.2179 41.921 20.4722 34.8333 20.4722C27.7457 20.4722 22 26.2179 22 33.3056C22 40.3932 27.7457 46.1389 34.8333 46.1389Z" fill="white"/>
<defs>
<linearGradient id="paint0_linear" x1="27.5" y1="0" x2="27.5" y2="55" gradientUnits="userSpaceOnUse">
<stop stop-color="#6FB4FF"/>
<stop offset="1" stop-color="#007AFF"/>
</linearGradient>
</defs>
</svg>
