<svg width="512" height="512" viewBox="0 0 512 512" fill="none" xmlns="http://www.w3.org/2000/svg">
<rect width="512" height="512" fill="white"/>
<rect x="49" y="78" width="414" height="414" rx="60" stroke="black" stroke-width="8"/>
<path d="M49 216H463V432C463 465.137 436.137 492 403 492H109C75.8629 492 49 465.137 49 432V216Z" fill="#008AC8" stroke="black" stroke-width="8"/>
<rect x="98" y="20" width="315" height="59" rx="12" fill="#A0BCC8" stroke="black" stroke-width="8"/>
<rect x="139.493" y="137.672" width="231.708" height="231.708" fill="#A0BCC8" stroke="black" stroke-width="7"/>
<path d="M257.067 173.593C255.986 171.574 258.881 168.894 260.671 170.323C312.077 211.357 300.258 253.689 297.63 261.172C297.374 261.902 297.513 262.704 298 263.305C301.37 267.473 313.943 284.385 310.198 300.516C309.825 302.124 307.674 302.371 306.623 301.098C303.275 297.039 296.495 290.614 287.129 290.614C273.933 290.614 266.181 304.34 239.626 304.34C194.302 304.34 167.294 275.242 157.151 261.652C155.896 259.97 157.789 258.136 159.606 259.188C200.703 282.966 230.573 271.247 239.452 266.637C240.756 265.96 240.738 264.206 239.524 263.379C222.352 251.69 194.447 218.518 178.773 199.044C177.269 197.175 179.732 194.861 181.587 196.382C196.086 208.269 207.137 216.522 215.058 222.085C217.02 223.463 219.741 220.221 218.238 218.354C212.473 211.193 206.082 202.637 200.603 195.115C199.162 193.138 202.292 190.409 204.139 192.014C226.581 211.522 254.133 231.697 261.906 237.319C262.98 238.096 264.486 237.604 264.888 236.341C273.078 210.563 264.173 186.861 257.067 173.593Z" fill="#049DFF"/>
<path d="M270.066 183.047C268.985 181.028 271.88 178.348 273.67 179.777C325.076 220.811 313.257 263.143 310.629 270.626C310.373 271.356 310.512 272.158 310.999 272.759C314.369 276.927 326.942 293.838 323.197 309.969C322.824 311.578 320.673 311.825 319.622 310.552C316.274 306.493 309.494 300.068 300.128 300.068C286.932 300.068 279.18 313.794 252.625 313.794C207.301 313.794 180.293 284.696 170.15 271.106C168.894 269.424 170.788 267.59 172.605 268.642C213.702 292.42 243.572 280.701 252.451 276.091C253.755 275.414 253.737 273.66 252.523 272.833C235.351 261.143 207.446 227.972 191.772 208.497C190.268 206.629 192.731 204.315 194.586 205.836C209.085 217.723 220.136 225.976 228.057 231.539C230.019 232.917 232.74 229.675 231.237 227.808C225.472 220.647 219.081 212.091 213.602 204.569C212.161 202.591 215.291 199.863 217.138 201.467C239.58 220.976 267.132 241.151 274.905 246.773C275.979 247.55 277.485 247.058 277.886 245.795C286.077 220.016 277.172 196.315 270.066 183.047Z" fill="#1047D5"/>
<path d="M292.563 258.521C300.683 232.965 292.684 209.493 285.64 195.582C309.307 215.136 318.363 234.693 321.282 250.157C324.296 266.125 320.819 278.024 319.616 281.449C319.015 283.162 319.343 285.053 320.483 286.463C322.087 288.446 325.904 293.496 328.855 299.944C331.535 305.798 333.36 312.498 332.48 318.991C328.587 314.721 321.543 308.885 311.945 308.885C308.097 308.885 304.721 309.894 301.507 311.273C299.452 312.156 297.3 313.27 295.134 314.393C294.046 314.957 292.954 315.522 291.869 316.062C285.223 319.363 277.111 322.611 264.442 322.611C225.314 322.611 200.227 300.238 188.204 285.957C227.711 306.483 256.528 295.307 265.651 290.57C269.3 288.675 268.802 284.059 266.028 282.17C257.766 276.546 246.707 265.574 235.623 253.384C227.364 244.3 219.202 234.664 212.339 226.317C223.115 234.925 231.662 241.255 238.15 245.811C240.972 247.794 243.838 246.082 245.054 244.646C246.277 243.2 247.414 240.257 245.391 237.744C240.789 232.027 235.774 225.402 231.142 219.12C252.818 237.553 277.653 255.733 284.964 261.021C287.683 262.988 291.539 261.744 292.563 258.521Z" fill="black" stroke="black" stroke-width="6"/>
<rect x="127" y="391" width="258" height="58" fill="#A0BCC8"/>
<path d="M172.121 425.141C172.165 428.041 174.099 431.366 180.207 431.366C185.437 431.366 188.425 428.817 188.425 424.906C188.425 421.112 185.817 419.691 182.946 419.135L180.046 418.549C178.317 418.212 177.365 417.553 177.365 416.483C177.365 415.165 178.449 414.271 180.339 414.271C182.492 414.271 183.532 415.487 183.62 416.732H188.088C188.044 413.319 185.188 410.624 180.354 410.624C175.886 410.624 172.546 412.865 172.546 416.864C172.546 420.351 174.904 421.962 177.863 422.548L180.69 423.163C182.639 423.573 183.649 424.145 183.649 425.39C183.649 426.708 182.595 427.675 180.383 427.675C178.054 427.675 176.823 426.444 176.735 425.141H172.121ZM213.093 415.355H208.405L206.428 426.386H206.237L203.615 415.355H199.206L196.613 426.386H196.423L194.445 415.355H189.699L193.64 431H198.664L201.315 420.438H201.477L204.143 431H209.123L213.093 415.355ZM215.158 411.415C215.158 412.807 216.301 413.715 217.692 413.715C219.084 413.715 220.227 412.807 220.227 411.415C220.227 410.023 219.084 409.115 217.692 409.115C216.301 409.115 215.158 410.023 215.158 411.415ZM215.349 431H220.036V415.355H215.349V431ZM224.958 431H229.616V418.915H232.473V415.355H229.499V414.198C229.499 413.026 230.188 412.602 231.535 412.602C232.062 412.602 232.37 412.631 232.561 412.646V409.452C232.268 409.438 231.682 409.35 230.554 409.35C226.672 409.35 224.958 410.565 224.958 413.803V415.355H222.629V418.915H224.958V431ZM236.647 415.355H234.245V418.915H236.53V426.547C236.53 429.813 238.142 431.044 242.155 431.044C243.093 431.044 243.854 430.971 244.206 430.912V427.528C244.045 427.543 243.649 427.558 243.283 427.558C241.862 427.558 241.174 427.089 241.174 425.712V418.915H244.162V415.355H241.174V411.723H236.647V415.355ZM252.087 411.005H247.253V424.174C247.253 428.495 250.432 431.366 255.646 431.366C260.861 431.366 264.04 428.495 264.04 424.174V411.005H259.191V423.5C259.191 426.02 257.741 427.323 255.646 427.323C253.537 427.323 252.087 426.049 252.087 423.5V411.005ZM272.551 431V411.005H267.702V431H272.551ZM280.695 424.599C280.695 428.1 282.907 431.366 287.8 431.366C292.297 431.366 295.021 428.949 295.021 424.218V411.005H290.158V424.145C290.158 426.063 289.47 427.104 287.756 427.104C286.218 427.104 285.368 426.122 285.339 424.599H280.695ZM307.019 429.125H307.224V431H311.633V420.57C311.633 416.703 308.703 415.121 304.953 415.121C299.987 415.121 298.42 417.787 298.332 420.336H302.712C302.771 419.267 303.562 418.534 304.895 418.534C306.213 418.534 307.004 419.237 307.004 420.512V421.815H303.386C299.738 421.815 297.761 423.632 297.761 426.488C297.761 429.462 299.87 431.234 302.932 431.234C305.231 431.234 306.491 430.209 307.019 429.125ZM304.543 427.968C303.444 427.968 302.39 427.353 302.39 426.122C302.39 425.067 303.181 424.364 304.631 424.364H307.004V425.902C307.004 427.147 305.876 427.968 304.543 427.968ZM314.885 431H319.572V421.771C319.572 419.735 320.642 418.944 321.916 418.944C323.146 418.944 324.245 419.633 324.245 421.786V431H328.728V421.801C328.728 419.896 329.65 418.944 331.086 418.944C332.375 418.944 333.386 419.721 333.386 421.698V431H338.088V420.277C338.088 417.216 336.271 415.121 333.093 415.121C330.427 415.121 328.815 416.601 328.361 417.904H328.171C327.673 416.264 326.252 415.121 323.864 415.121C321.359 415.121 320.056 416.615 319.675 417.802H319.44V415.355H314.885V431Z" fill="black"/>
<rect x="127" y="391" width="258" height="58" stroke="black" stroke-width="6"/>
</svg>
