<svg width="256" height="256" viewBox="0 0 256 256" fill="none" xmlns="http://www.w3.org/2000/svg">
<rect width="256" height="256" fill="white"/>
<rect x="25.5" y="40" width="205" height="205" rx="29" stroke="black" stroke-width="6"/>
<path d="M25.5 109H230.5V216C230.5 232.016 217.516 245 201.5 245H54.5C38.4837 245 25.5 232.016 25.5 216V109Z" fill="#008AC8" stroke="black" stroke-width="6"/>
<rect x="50" y="12" width="155.5" height="27.5" rx="5" fill="#A0BCC8" stroke="black" stroke-width="6"/>
<rect x="61.5" y="76" width="133" height="133" fill="#A0BCC8" stroke="black" stroke-width="6"/>
<path d="M131.359 100.889C130.468 98.7788 133.562 96.0458 135.26 97.5832C159.495 119.531 154.477 141.243 152.79 146.453C152.552 147.189 152.687 147.996 153.164 148.606C155.354 151.406 161.227 159.805 160.228 168.209C160.034 169.849 157.89 170.138 156.742 168.951C154.575 166.713 151.067 164.097 146.507 164.097C138.823 164.097 134.309 172.089 118.846 172.089C95.1917 172.089 80.1045 158.478 72.9767 149.957C71.6297 148.347 73.4193 146.494 75.2827 147.461C96.099 158.264 111.532 153.498 117.559 150.715C118.892 150.099 118.89 148.342 117.707 147.472C109.353 141.331 97.2876 127.618 88.3939 116.879C86.864 115.032 89.2904 112.67 91.1716 114.157C93.8255 116.256 96.2288 118.102 98.3899 119.721C100.284 121.14 101.682 115.987 100.262 114.093V114.093C98.8134 112.161 103.486 111.195 105.353 112.727C115.806 121.306 126.492 129.191 130.929 132.416C132 133.196 133.507 132.714 133.874 131.441C137.278 119.632 134.632 108.649 131.359 100.889Z" fill="#049DFF"/>
<path d="M138.928 106.394C138.038 104.284 141.131 101.551 142.829 103.088C167.064 125.036 162.046 146.747 160.359 151.958C160.121 152.694 160.257 153.501 160.733 154.111C162.923 156.911 168.796 165.31 167.798 173.714C167.603 175.354 165.459 175.643 164.311 174.456C162.144 172.217 158.637 169.601 154.076 169.601C146.392 169.601 141.878 177.594 126.415 177.594C102.761 177.594 87.6738 163.983 80.546 155.462C79.199 153.852 80.9886 151.999 82.852 152.966C103.668 163.769 119.101 159.003 125.128 156.22C126.462 155.604 126.46 153.847 125.276 152.977C116.923 146.836 104.857 133.122 95.9632 122.384C94.4333 120.537 96.8597 118.175 98.7409 119.662C101.395 121.761 103.798 123.607 105.959 125.226C107.854 126.645 109.251 121.492 107.832 119.598V119.598C106.383 117.666 111.055 116.7 112.922 118.232C123.375 126.811 134.061 134.695 138.498 137.921C139.57 138.701 141.077 138.219 141.444 136.946C144.847 125.137 142.202 114.154 138.928 106.394Z" fill="#1047D5"/>
<path d="M151.208 144.658C154.658 132.687 152.309 121.588 149.161 113.554C159.715 123.62 163.86 133.409 165.242 141.205C166.696 149.406 165.128 155.623 164.386 157.915C163.848 159.579 164.147 161.429 165.251 162.84C166.265 164.137 168.133 166.735 169.619 169.951C170.761 172.423 171.607 175.108 171.765 177.763C169.262 175.628 165.602 173.483 160.957 173.483C158.488 173.483 156.347 174.132 154.385 174.975C153.148 175.506 151.819 176.194 150.532 176.861C149.91 177.183 149.297 177.5 148.709 177.792C144.949 179.66 140.42 181.475 133.296 181.475C114.95 181.475 102.02 172.838 94.1797 165.215C113.089 172.952 127.214 168.62 133.267 165.824C135.035 165.008 135.977 163.349 136.026 161.663C136.073 160.039 135.309 158.452 133.934 157.441C127.694 152.854 119.125 143.691 111.414 134.76C112.027 135.129 112.783 135.383 113.645 135.348C114.674 135.306 115.49 134.867 116.054 134.396C117.084 133.537 117.615 132.313 117.89 131.406C118.192 130.411 118.34 129.285 118.281 128.196C118.273 128.041 118.26 127.879 118.241 127.712C128.651 136.236 139.207 144.025 143.615 147.229C146.288 149.173 150.237 148.027 151.208 144.658Z" fill="black" stroke="black" stroke-width="6"/>
</svg>
